<?xml version="1.0" encoding="UTF-8"?>
<svg width="24" height="24" viewBox="0 0 24 24" fill="none" xmlns="http://www.w3.org/2000/svg">
  <!-- Head -->
  <path d="M12 4C8.69 4 6 6.69 6 10C6 13.31 8.69 16 12 16C15.31 16 18 13.31 18 10C18 6.69 15.31 4 12 4Z" fill="currentColor"/>
  
  <!-- Body -->
  <path d="M12 18C7.58 18 4 19.79 4 22V24H20V22C20 19.79 16.42 18 12 18Z" fill="currentColor"/>
  
  <!-- Stethoscope -->
  <path d="M19 8C19 9.66 17.66 11 16 11C14.34 11 13 9.66 13 8V6H19V8Z" fill="currentColor"/>
  <path d="M16 12C18.21 12 20 10.21 20 8V4H12V8C12 10.21 13.79 12 16 12Z" fill="currentColor"/>
  <path d="M16 13C13.24 13 11 15.24 11 18V20H21V18C21 15.24 18.76 13 16 13Z" fill="currentColor"/>
</svg> 